inDegrees=yes
name=ik_S44_A10_T03
DataType=double
version=3
OpenSimVersion=4.3-2021-08-27-4bc7ad9
endheader
time	pelvis_tilt	pelvis_list	pelvis_rotation	pelvis_tx	pelvis_ty	pelvis_tz	hip_flexion_r	hip_adduction_r	hip_rotation_r	knee_angle_r	knee_angle_r_beta	ankle_angle_r	subtalar_angle_r	mtp_angle_r	hip_flexion_l	hip_adduction_l	hip_rotation_l	knee_angle_l	knee_angle_l_beta	ankle_angle_l	subtalar_angle_l	mtp_angle_l	lumbar_extension	lumbar_bending	lumbar_rotation	arm_flex_r	arm_add_r	arm_rot_r	elbow_flex_r	pro_sup_r	wrist_flex_r	wrist_dev_r	arm_flex_l	arm_add_l	arm_rot_l	elbow_flex_l	pro_sup_l	wrist_flex_l	wrist_dev_l
5.639999999999968	-0.6219656138466582	-1.424463652746952	25.25863393144068	0	0.9399999999999999	0	44.37356430859914	-10.05613687197697	-10.10666558584349	52.63405204091376	0.9186375067799862	0	0	0	44.37356430859914	-10.05613687197697	-10.10666558584349	52.63405204091376	0.9186375067799862	0	0	0	-1.241472495481178	-0.8446095001525331	1.191937939620605	10.01765048990463	3.096432460459307	6.585503385498082	14.61692557254248	83.07165254468498	0	0	15.73909512283515	5.273416514781428	5.898253906599573	8.313262192922846	84.51477177908319	0	0
5.659999999999967	-0.6370702545340365	-1.41488928885193	25.37531352354744	0	0.9399999999999999	0	44.37385862096939	-10.05604461759202	-10.10655319693641	52.63479606136964	0.9186504923866435	0	0	0	44.37385862096939	-10.05604461759202	-10.10655319693641	52.63479606136964	0.9186504923866435	0	0	0	-1.253937999385419	-0.8255074671669622	1.076199638797045	10.08193924376725	3.512833862729421	7.235595687885044	13.43067291966491	83.44955509857171	0	0	15.56968846722468	5.424899218033266	5.947101937307567	8.556817264597115	83.46292059410548	0	0
5.679999999999967	-0.6352776080305298	-1.39566838787633	25.51440268234066	0	0.9399999999999999	0	44.37421431006744	-10.05593311671184	-10.10641733542355	52.63569425227762	0.9186661687752992	0	0	0	44.37421431006744	-10.05593311671184	-10.10641733542355	52.63569425227762	0.9186661687752992	0	0	0	-1.245455931613556	-0.8066757408106638	1.026247940419506	10.23652293777331	3.558383983440103	7.654517812810511	12.86997611843165	83.37733461568412	0	0	15.50600170575491	5.570605033438653	5.927984122020338	8.76327471186476	82.1119159609927	0	0
5.699999999999966	-0.6410287186228343	-1.34234327308535	25.66471804881572	0	0.9399999999999999	0	44.37448498081933	-10.05584847337296	-10.10631409273339	52.63637861370525	0.9186781131354852	0	0	0	44.37448498081933	-10.05584847337296	-10.10631409273339	52.63637861370525	0.9186781131354852	0	0	0	-1.229900144103839	-0.7532310998260821	0.9574451672524533	10.22475748640927	3.508299662862749	8.341848293118883	12.23196323353039	83.09752010116111	0	0	15.58999073063005	5.794254111335579	6.010169430300699	8.895377564531532	80.70903554315576	0	0
5.719999999999966	-0.6349304454334532	-1.318426962344757	25.80477197371388	0	0.9399999999999999	0	44.37470818540778	-10.05578002764963	-10.10623004227089	52.63695307530462	0.9186881393818203	0	0	0	44.37470818540778	-10.05578002764963	-10.10623004227089	52.63695307530462	0.9186881393818203	0	0	0	-1.214413891077433	-0.7332553671827856	0.9740924627473153	10.29632154240202	3.757400178250611	8.790946092072893	12.23542951805156	81.14076702788665	0	0	16.20012880041082	5.94973813969276	6.729022105669436	8.774036128945507	79.1416358228814	0	0
5.739999999999966	-0.6086154901224953	-1.285311496155391	25.75957180741947	0	0.9399999999999999	0	44.37509153035538	-10.05566051775847	-10.10608406449126	52.63792331481421	0.9187050732557956	0	0	0	44.37509153035538	-10.05566051775847	-10.10608406449126	52.63792331481421	0.9187050732557956	0	0	0	-1.175018182837368	-0.7159970161696384	1.089941182033681	10.66721635853344	3.88919750339393	8.920029209753974	12.57558572227118	79.52061088557809	0	0	16.52356405470892	6.101816006239759	7.397562290550463	9.910533848286189	78.15973960843881	0	0
5.759999999999965	-0.5557803236308464	-1.226706787885496	25.76091811568999	0	0.9399999999999999	0	44.37539683349181	-10.05556536127263	-10.10596779949505	52.63869541253526	0.9187185489031752	0	0	0	44.37539683349181	-10.05556536127263	-10.10596779949505	52.63869541253526	0.9187185489031752	0	0	0	-1.10037735076641	-0.6881472482237561	1.235479961513927	11.29972110220198	3.886376591918492	8.61266864652765	12.76121856035991	78.67238588551321	0	0	16.99238541244355	6.155052888180959	8.127695257784419	10.03264321089305	77.42249195263133	0	0
5.779999999999965	-0.5268919881274274	-1.165408628247901	25.74543219968901	0	0.9399999999999999	0	44.37575147162008	-10.05545492779735	-10.10583279740618	52.63959205354023	0.9187341982409203	0	0	0	44.37575147162008	-10.05545492779735	-10.10583279740618	52.63959205354023	0.9187341982409203	0	0	0	-1.047038337433964	-0.6453399480363512	1.363047328208645	12.19260310853469	3.807017947806791	8.217110333415363	13.25063892767211	78.38296203747343	0	0	17.66390640513401	6.209418517496946	8.796999879763254	10.96445012748553	76.49315796710846	0	0
5.799999999999964	-0.4523856254829393	-1.071372680077049	25.81083169818978	0	0.9399999999999999	0	44.37989688602331	-10.05455748821844	-10.10457728315273	52.65323587251032	0.9189723278044944	0	0	0	44.37989688602331	-10.05455748821844	-10.10457728315273	52.65323587251032	0.9189723278044944	0	0	0	-0.9372224750733823	-0.5969297839750421	1.501413651971989	13.40914055571221	3.54737507823791	7.541165288424741	12.78457489962086	78.65711389851273	0	0	18.47512796794763	6.282925215719718	9.238668582952625	12.09038248853592	75.76845377348009	0	0
5.819999999999964	-0.3343714570176918	-0.9836553772351487	25.93463262260875	0	0.9399999999999999	0	44.38792171757942	-10.05291383611938	-10.10222114818999	52.68018144341149	0.9194426167355494	0	0	0	44.38792171757942	-10.05291383611938	-10.10222114818999	52.68018144341149	0.9194426167355494	0	0	0	-0.7927525984610791	-0.5706592082001983	1.450685613628155	13.15384819127524	3.355869455590061	7.592465704697434	14.99018359333426	78.58075486051035	0	0	19.5995183343848	6.281991228295668	9.238863595927528	13.2813321531356	74.92305532895794	0	0
5.839999999999963	-0.2216806928696122	-0.8973830037449031	25.98462084144867	0	0.9399999999999999	0	44.39349699670272	-10.05177169454544	-10.1005840975298	52.69880476720888	0.9197676550534788	0	0	0	44.39349699670272	-10.05177169454544	-10.1005840975298	52.69880476720888	0.9197676550534788	0	0	0	-0.6526355403618661	-0.5437233736069175	1.485503792160529	14.66742218992405	2.871290301400724	7.167506144515627	16.11609304016221	78.35296475827143	0	0	21.04316273172188	6.281022008242855	9.096852107725217	14.71090566904417	73.82537964161381	0	0
5.859999999999963	-0.1369439349168283	-0.8334773518265249	26.18327938925846	0	0.9399999999999999	0	44.40298584921377	-10.04984589168551	-10.09780916105401	52.73033388031938	0.9203179418874907	0	0	0	44.40298584921377	-10.04984589168551	-10.09780916105401	52.73033388031938	0.9203179418874907	0	0	0	-0.547768652214962	-0.5243094937094723	1.366379556210891	14.5122416078646	2.660263956106477	7.256576436124003	19.4236054889774	77.34144728083584	0	0	22.8482727700824	6.253132288593905	8.7835064628776	16.45152656853731	72.7076117565647	0	0
5.879999999999963	0.06208124732178898	-0.6981860563999785	26.23159967827106	0	0.9399999999999999	0	44.41029124886042	-10.04842174781423	-10.09572267811396	52.7549849784167	0.9207481847135212	0	0	0	44.41029124886042	-10.04842174781423	-10.09572267811396	52.7549849784167	0.9207481847135212	0	0	0	-0.3068040995380006	-0.4886138114415625	1.45744196780689	18.3457499037061	1.895684813436578	6.172786800316603	19.21711319526266	76.78398428799687	0	0	24.81553883573364	6.229053062459267	8.102473061863634	18.08511695941451	72.34818319172598	0	0
5.899999999999962	0.3937826075261533	-0.4932141113085656	26.07707047822872	0	0.9399999999999999	0	44.4173289129942	-10.04706635233471	-10.09372550248633	52.77868315023078	0.9211617958383802	0	0	0	44.4173289129942	-10.04706635233471	-10.09372550248633	52.77868315023078	0.9211617958383802	0	0	0	0.08480442179140464	-0.454584924210851	1.673708267067597	20.26262695963446	1.382293618750083	5.232896740680342	20.47422019948344	77.28063771346741	0	0	24.09361911144773	6.096816392393143	8.330344720703252	22.3951563425056	72.22733451477727	0	0
